/* XPM */ 
static const unsigned char * button16x16_xpm[] = {
"16 16 5 1",
" 	c None",
"!	c black",
"#	c white",
"$	c #D6D6D6",
"%	c #7B7B7B",
"                ",
"                ",
" #############! ",
" #$$$$$$$$$$$%! ",
" #$$$$$$$$$$$%! ",
" #$$$!$$!$!$$%! ",
" #$$!$!$!!$$$%! ",
" #$$!$!$!!$$$%! ",
" #$$!$!$!$!$$%! ",
" #$$$!$$!$!$$%! ",
" #$$$$$$$$$$$%! ",
" #$$$$$$$$$$$%! ",
" #%%%%%%%%%%%%! ",
" !!!!!!!!!!!!!! ",
"                ",
"                "};