/* XPM */ 
static const unsigned char * flatnotebook_xpm[] = {
"21 21 8 1",
" 	c None",
"!	c #787878",
"#	c black",
"$	c #D9D9D9",
"%	c #ABABAB",
"&	c white",
"'	c #D8D8D8",
"(	c #393939",
"!!!!!!!!!!!!!!!!!!!!!",
"!                   !",
"!$$$$$$$$$$$$$$$$$$$!",
"!$$%%%%%%$$$$$%$$$$$!",
"!$%&&&&&&%$$$$%$$$$$!",
"!$%&&&&&&%$$$$%$$$$$!",
"!$%&&&&&&%$$$$%$$$$$!",
"!%%&&&&&&%%%%%%%%%%%!",
"!'$$$$$$$$$$$$$$$$$$!",
"!$$$$$$$$$$$$$$$$$$$!",
"!$$$$$$$$$$$$$$$$$$$!",
"!$$$$$$$$$$$$$$$$$$$!",
"!$$$$$$$$$$$$$$$$$$$!",
"!$$$$$$$$$$$$$$$$$$$!",
"!$$$$$$$$$$$$$$$$$$$!",
"!$$$$$$$$$$$$$$$$$$$!",
"!$$$$$$$$$$$$$$$$$$$!",
"!$$$$$$$$$$$$$$$$$$$!",
"!(((((((((((((((((((!",
"!$$$$$$$$$$$$$$$$$$$!",
"!!!!!!!!!!!!!!!!!!!!!"};