/* XPM */ 
static const unsigned char * frame16x16_xpm[] = {
"16 16 9 1",
" 	c None",
"!	c black",
"#	c #7B7B7B",
"$	c #00287C",
"%	c #FF6C6C",
"&	c #00FF00",
"'	c white",
"(	c #D6D6D6",
")	c #F2F2F2",
"                ",
"                ",
"#$%$$$$$$$$$$$#!",
"#$&$''$'$$$$(!#!",
"###############!",
"#(''''''''''''#!",
"#(''''''''''''#!",
"#(''''''''''''#!",
"#(''''''''''''#!",
"#(''''''''''''#!",
"#(''''''''''''#!",
"#(''''''''''''#!",
"###############!",
")!!!!!!!!!!!!!!!",
"                ",
"                "};