/* XPM */
static char *menubar_xpm[] = {
/* columns rows colors chars-per-pixel */
"22 22 7 1",
"  c black",
". c #0066CC",
"X c magenta",
"o c #808080",
"O c gray95",
"+ c gray100",
"@ c None",
/* pixels */
"@@@@@@@@@@@@@@@@@@@@@@",
"oooooooooooooooooooooo",
"o.......OOOOOOOOOOOOOO",
"o.+++++.O....OO.....OO",
"o.......OOOOOOOOOOOOOO",
"oooooooooooooooooooooo",
"@o++++++++o@@@@@@@@@@@",
"@o+......+o @@@@@@@@@@",
"@o++++++++o @@@@@@@@@@",
"@o+....+++o @@@@@@@@@@",
"@o++++++++o @@@@@@@@@@",
"@o+......+o @@@@@@@@@@",
"@o++++++++o @@@@@@@@@@",
"@oooooooooo @@@@@@@@@@",
"@o++++++++o @@@@@@@@@@",
"@o+....+++o @@@@@@@@@@",
"@o++++++++o @@@@@@@@@@",
"@o+......+o @@@@@@@@@@",
"@o++++++++o @@@@@@@@@@",
"@oooooooooo @@@@@@@@@@",
"@@          @@@@@@@@@@",
"@@@@@@@@@@@@@@@@@@@@@@"
};
