/* XPM */ 
static const unsigned char * plot16x16_xpm[] = {
"16 16 7 1",
" 	c None",
"!	c #454545",
"#	c white",
"$	c #B8B8B8",
"%	c #2424FF",
"&	c #D2D2D2",
"'	c #FF2424",
"!#$#$#$#$#$#$#$#",
"!$$$$$$$$$$$$$$$",
"!%$#$#$#$#$#$#$%",
"!&%$$$$$$$$$$$%&",
"!#$%$#$#$#$#$%$#",
"!$$$%$$$$$$$$%$$",
"!#$#$%$#$#$#%#$#",
"!$$$$$%%$$%%$$$$",
"!#$#$#$#%%$#$#$#",
"!$$$$$$$$$$$$$$$",
"!''#$#$#$#$#$#$'",
"!$$'''$$$$$$$$'$",
"!#$#$#''''$#$#'#",
"!$$$$$$$$$''''$$",
"!#$#$#$#$#$#$#$#",
"!!!!!!!!!!!!!!!!"};