/* XPM */
static char * staticbox_sizer_xpm[] = {
"21 21 6 1",
" 	c None",
".	c #AAAAAA",
"+	c #000000",
"@	c #0000FF",
"#	c #4949FF",
"$	c #9B9BFF",
"                     ",
".................... ",
".++++++++++++++++++.+",
".+                 .+",
".+  @@@@@@@@@@@@@  .+",
".+ @#$$$$$$$$$$$#@ .+",
".+ @$           $@ .+",
".+ @$           $@ .+",
".+ @$           $@ .+",
".+ @#$$$$$$$$$$$#@ .+",
".+ @@@@@@@@@@@@@@@ .+",
".+ @#$$$$$$$$$$$#@ .+",
".+ @$           $@ .+",
".+ @$           $@ .+",
".+ @$           $@ .+",
".+ @#$$$$$$$$$$$#@ .+",
".+  @@@@@@@@@@@@@  .+",
".+                 .+",
"....................+",
" ++++++++++++++++++++",
"                     "};
