/* XPM */
static char * stddialogbuttonsizer_xpm[] = {
"21 21 8 1",
" 	c None",
".	c #0000FF",
"+	c #4949FF",
"@	c #9B9BFF",
"!	c black",
"#	c white",
"$	c #D6D6D6",
"%	c #7B7B7B",
"                     ",
"  .................. ",
" .+@@@@@@@@@@@@@@@@+.",
" .@                @.",
" .@                @.",
" .@ #############! @.",
" .@ #$$$$$$$$$$$%! @.",
" .@ #$$$$$$$$$$$%! @.",
" .@ #$$$!$$!$!$$%! @.",
" .@ #$$!$!$!!$$$%! @.",
" .@ #$$!$!$!!$$$%! @.",
" .@ #$$!$!$!$!$$%! @.",
" .@ #$$$!$$!$!$$%! @.",
" .@ #$$$$$$$$$$$%! @.",
" .@ #$$$$$$$$$$$%! @.",
" .@ #%%%%%%%%%%%%! @.",
" .@ !!!!!!!!!!!!!! @.",
" .@                @.",         
" .+@@@@@@@@@@@@@@@@+.",
"  .................. ",
"                     "};
