/* XPM */
static char * awxled_xpm[] = {
"16 16 65 1",
" 	c None",
".	c #121212",
"+	c #AEA6A6",
"@	c #7C2F2A",
"#	c #8A6662",
"$	c #9B7F7A",
"%	c #A61E22",
"&	c #222622",
"*	c #BB7A75",
"=	c #AE9696",
"-	c #E6CECE",
";	c #9E4A42",
">	c #524A4A",
",	c #DE9A96",
"'	c #E0655A",
")	c #CEBEC6",
"!	c #D69690",
"~	c #222222",
"{	c #7A5252",
"]	c #D13E35",
"^	c #726662",
"/	c #D6CAD6",
"(	c #421E1A",
"_	c #4A2622",
":	c #C0483C",
"<	c #FB897B",
"[	c #F47A74",
"}	c #D34C40",
"|	c #9E3636",
"1	c #DEC6C6",
"2	c #EE6656",
"3	c #724E4A",
"4	c #E6A6A6",
"5	c #C2382E",
"6	c #523A32",
"7	c #8A8286",
"8	c #42413A",
"9	c #904544",
"0	c #5A0E0A",
"a	c #F68E7A",
"b	c #9E969E",
"c	c #FDA299",
"d	c #DA574A",
"e	c #FEB09E",
"f	c #FBB9A4",
"g	c #96544E",
"h	c #C6554A",
"i	c #B62622",
"j	c #5A5E5A",
"k	c #AE3833",
"l	c #551A17",
"m	c #96322A",
"n	c #FBE1E3",
"o	c #661E16",
"p	c #D66E62",
"q	c #B63E3E",
"r	c #F47166",
"s	c #5E4E46",
"t	c #6A5E5E",
"u	c #664642",
"v	c #7F726A",
"w	c #72766A",
"x	c #FE9589",
"y	c #4F534A",
"z	c #E66D5A",
"                ",
"     j&.~y      ",
"   ^8b)/)7>t    ",
"  wu=1nnn-$uv   ",
" +_9*!44,!*g(   ",
" u@k|::hh:|k@{  ",
" l|%5}}}d}5%|l  ",
" 0k]d'rzz'd]k0  ",
" oqd2ra<<[zd]o  ",
" @:2r<xxx<r2]@  ",
" #mr[xcccx<rkg  ",
"  9dacfffea'9$  ",
"  $|[xeffcpk{   ",
"   v6#*[';us7   ",
"     t88y>      ",
"                "};
