/* XPM */ 
static const unsigned char * plot_xpm[] = {
"20 18 7 1",
" 	c None",
"!	c #454545",
"#	c white",
"$	c #C5C5C5",
"%	c #FF2424",
"&	c #848484",
"'	c #2424FF",
"!##$##$##$##$##$##$#",
"!##$##$##$##$##%%%&#",
"!%%$$$$$$$$$$$%&$&%$",
"!##%&#$##$##$&%$##$#",
"!##$%#$##$##%%#$##$#",
"!$$$$%$$$$$%&$$$$$$$",
"!##$#&%##$%&$##$##$#",
"!##$##&%%%&#$##$##$#",
"!$$$$$$$$$$$$$$$$$$$",
"!##$##$##$##$##$##'#",
"!##''''##$##$##$#'&#",
"!$'&$$$'&$$$$$$$&'$$",
"!&'$##$#'$##$##$'#$#",
"!'#$##$##'##$##'&#$#",
"!$$$$$$$$&'$$$'&$$$$",
"!##$##$##$&'''&$##$#",
"!##$##$##$##$##$##$#",
"!!!!!!!!!!!!!!!!!!!!"};