/* XPM */ 
static const unsigned char * scintilla_xpm[] = {
"48 48 20 1",
" 	c None",
"!	c black",
"#	c #666666",
"$	c #555555",
"%	c #4D4D4D",
"&	c #777777",
"'	c #424242",
"(	c #808080",
")	c #868686",
"*	c #A0A0A4",
"+	c #999999",
",	c #B2B2B2",
"-	c #333333",
".	c #D7D7D7",
"0	c #E3E3E3",
"1	c #C0C0C0",
"2	c #F1F1F1",
"3	c white",
"4	c #CCCCCC",
"5	c #292929",
"                   ###$#$$$#$                   ",
"                %#%&'('&%##$$$$$                ",
"             $#%('##')$')$%&#%$#$$$             ",
"            %&'#(%&('$*%$)&'$&$%$$$%            ",
"          #%&#'+#'#,%'&*%'$)$'$&$'$$%$          ",
"         $#-,'-,(-%,)%%&,$%'()#'%&#%%#$         ",
"        ')-$,-'*,--(.#--#,&-'#+('$$&#'%#        ",
"       $#&-&,-%)0$$-+.&%-%,1$--&+&'-$&#-$       ",
"      (-+$-(.--%21--$,0#''#+,#%%'#)##$%&$'      ",
"     $$-1%-#2$-%*3($--,0+---),+'-%&()$-'$&'     ",
"    $)-'.%%'3*$'-.2$-%#,2+%$''),)+$-'(($''&&    ",
"    -+''0$'-42'-$&20&$--*0,%--()**$-'%$(&--&    ",
"   &%*'-0)--(3*%--)3.''$%&..((#--(*)$---$($--   ",
"  #$$*-%41%--.2#-'&+30#-5-#4.+--&&$(+&-'''&(''  ",
"  )-&,5'+3%-'+30#$5-*30$-$%-).1*$-55$+)#-55%,%  ",
"  ,5#.--$3+&--,31--$')32)-5-'&,1(-'$#%$)(%'%##  ",
" -,5%0%'-.0$55-.3,%55-+22)%%'5-)1,('555'&))$55' ",
" -1-'.('-)3,55-%23+-'%5$034'55'$$+,+%'##$'()#-5 ",
" -4-',1-5$.3#-5#&23+'5-%#13.#$'555(**)$5555$,+- ",
"'5,$-&3$%5$30'#-5&33+'($5-100)-5%$$'#++#-'(-'#%'",
"'5))-'0,$5#*31'5-)(234'5'+&#4.1,%5555%)++(%555-'",
"'-#1-5+3$5&-.3*'&-5)234&)'5-+,41)-$$#$'%(+)$555-",
"'''.%-(2.#5-+23,'5%$%.32$5(+$5$,1,*$55555$*0)-55",
"-%5))--)3,5$'#33)%$5-(1334&55%+*(,,)$$$#&#%(#%-5",
"5%-$*-5-.2$(5')23,5-&'-,321#++'55$+**,&-55555-'-",
"-%--()5'*20'5$-#23*#'5#($.0.)5-&,+$$)**+#5-'-%5-",
"-'''%)-#%(34$$5%(231-#&5',*..,1#-555%),01(&$'$55",
"'-$'-&#+-'131--$5&230(5%+-5+44,&%#*+(#$$$$%'555-",
"'-$'-'((5''13,%'5#'.32()5-,#5(114*'5555555'''-5-",
" --$--$&'(-',.,-'%5(*22*%,-5#)(*0.*$&)&,*(##%-- ",
" '-%%--(&&5''(,($-%$5*020&%(&55#)(&##$-55555-55 ",
" ''-##-&&&-'%-()(-#-%$-**+)'')&#-5-%%%'-5555555 ",
"  '-%#-#'&##%-$$(($5&5#'#&&#)-5-#&)((%''''''-5  ",
"  -%-$%$-%&($-#5&&&$#-$'&5&$$$&#%-555555-----5  ",
"  -''-##'-$&#-(5#'&&##-$-#5$%$%%'##$&$$'55555-  ",
"   -%-'#$-%'&&&-&5($&#$%$-#'%&%%%%'''%$(&'-55   ",
"    -%-'#''-%)($'$$-$$#$$$5#'-$##%''--555'$5    ",
"    ''%''&%%-$()$%-%%%%$$$%$$''55---''---55-    ",
"     -%%-'&#%-$#(#$'''$'$$$%%$%&#%'555-'-5-     ",
"      -%%-%#(%-&'#&#'$%#$$%%$%'-5'#($555'5      ",
"       -'$-$((#''#$##$%%$%$'$$%%'-5-&%55-       ",
"        ''$-'#&#$%-%$#$$'%$%'-#--'''----        ",
"         '-%'-'$#%--'%'$$$%'$'-&55$-55'         ",
"          '''$-''$#%'''%'$%%'$5$$5-'55          ",
"            --%%%$#%$%%'-$-#-%'''---            ",
"             '--''--'''%#''-5'5--5-             ",
"                -5''-5-5-%5---5-                ",
"                   55555-55--                   "};